<svg xmlns="http://www.w3.org/2000/svg" viewBox="0 0 512 512">
  <defs>
    <linearGradient id="bg" x1="0%" y1="0%" x2="100%" y2="100%">
      <stop offset="0%" style="stop-color:#3b82f6"/>
      <stop offset="100%" style="stop-color:#f472b6"/>
    </linearGradient>
  </defs>
  <rect width="512" height="512" rx="96" fill="url(#bg)"/>
  <path fill="white" d="M160 120h192c22 0 40 18 40 40v192c0 22-18 40-40 40H160c-22 0-40-18-40-40V160c0-22 18-40 40-40z"/>
  <path fill="#1e293b" d="M180 200h152v20H180zm0 50h100v20H180z"/>
  <path fill="none" stroke="#3b82f6" stroke-width="8" stroke-linecap="round" d="M180 320c20-30 40 10 60-20s40 30 60 0 40 20 52-10"/>
</svg>

